<?xml version="1.0" encoding="UTF-8"?>
<svg id="Layer_1" xmlns="http://www.w3.org/2000/svg" width="1000" height="275" version="1.1" viewBox="0 0 1000 275">
  <!-- Generator: Adobe Illustrator 30.3.0, SVG Export Plug-In . SVG Version: 2.1.3 Build 182)  -->
  <defs>
    <style>
      .st0 {
        fill: #e2e2e2;
      }

      .st1 {
        fill: #fff;
      }

      .st2 {
        fill: #f9f9f9;
      }

      .st3 {
        fill: #fafafa;
      }

      .st4 {
        fill: #f5f5f5;
      }

      .st5 {
        fill: #fbfbfb;
      }

      .st6 {
        fill: #fcfcfc;
      }

      .st7 {
        fill: #fdfdfd;
      }
    </style>
  </defs>
  <g>
    <path class="st6" d="M781.85,155.86c.07-5.64-21,.2-24.33.96-7.8,1.79-64.96,20.17-65.08,24.36,1.81,2.52,1.3,3.41,4.24,3.26,11.39-.59,27.47-12.93,39.6-11.7-6.36,7.19-56.97,50.51-62.44,46.44-3.02-9.07,4.15-19.65,8.74-27.53,11.36-19.43,37.8-46.44,57.58-57.21,2.84-1.54,17.52-4.02,9.17-11.06-5.05-4.25-15.6,5.03-20.34,8.34-20.21,14.05-44.03,37.39-55.46,59.34-4.9,9.37-16.27,32.24,1.13,33.24,16.21.91,34-20.12,46.41-29.58,1.69-1.28,2.13-3.29,5.06-2.52-5.39,17.78-18.27,35.65-18.7,54.86-.12,5.47.49,15.06,6.89,12.66-2.09-21.15,24.11-82.65,40.67-93.56,3.93-2.6,26.82-8.58,26.84-10.26l.02-.05Z"/>
    <path class="st5" d="M883.37,148.96c-.64-3.44-14.48.27-21.93.84,1.87-4,14.53-29.05,13.51-30.35-.98-1.22-7.98-1.65-9.71.42-2.19,2.63-6.55,13.74-9.61,22.18-1.62,4.46-2.8,9.15-2.8,9.15,0,0-7.11,1.65-11.51,2.5-3.33.64-5.22,2.21-5.18,3.71.07,4.1,2.03,3.12,5.96,1.72,3.65-1.3,9.34-2.7,10.45-2.95-.08,1.89-8.49,24.22-11.45,26.47-.95.73-21.03,10.23-21.84,9.37-.59-8.1,12.04-14.52,6.75-21.08-5.28-6.57-8.59,7.63-13.57,11.75-2.11,1.76-17.4,9.17-18.91,8-1.2-.95-2.38-1.79.47-11.24.74-2.45,6.5-12.63-.89-11.04-2.9.62-22.11,31.18-26.2,23.6-3.04-5.64,12.56-16.43,11.78-22.79-.73-5.96-18.1,14.2-19.46,25.19-.32,2.53,1.1,3.6,1.69,4.46,5.42,7.92,20.33-10.97,25.42-13.59.22,21.3,13.23,8.93,24.44,3.38-7.28,29.09,25.27-3.53,28.7,0,.14,3.63-1.42,9.4-1.27,13.05.12,2.6-.32,4.61,3.78,3.82,3.78-5.45,7.61-21.86,11.38-34.12,2.85-9.28,6.25-15.78,6.25-15.78,0,0,19.62-2.52,23.77-4.74.57-.3.2-1,0-1.89l-.02-.02Z"/>
    <path class="st3" d="M916.95,171.92c-.3-.29.17-7.8-4.22-6.75-3.14.74-6.28,14.26-9.27,17.76-1.37,1.59-12.42,8.46-14.42,9.22-6.45,2.46,1.94-13.56,2.25-14.67.71-2.57,1.27-4.51-2.23-3.92-4.05.68-24.43,21.42-27.84,18.59,3.09-5.66,9.28-10.97,14.38-15.14,2.95-2.41,16.44-7.97,12.61-11.85-4.68-4.74-38.96,23.82-33,32.13,4.44,6.18,20.68-6.57,24.56-10.2.32,17.98,13.07,6.63,21.95,1.69,1.35,1.64-7.01,12.86,4.02,10.2,2.03-.49,3.44-9.74,4.84-12.34,5.22-9.72,18.16-11.58,26.6-17.29-3.63-4.07-19.48,3.26-20.22,2.55l-.02.03Z"/>
    <path class="st0" d="M831.26,155.27c-5.39-.02-9.25,9.44-4.93,10.43,2.01.46,6.92-9.44,4.93-10.43Z"/>
    <path class="st2" d="M959.69,184.69c-5.67.27-12.44-4.39-19.11-2.68.46-3.14,20.88-10.69,18.55-13.47-6.63-4.68-25.46,10.16-24.98,15.45,3.41,6.6,5.03,4.12,10.67,3.11,1.87-.34,8.07-.3,5.87,1.65-4.61,4.09-32.36,15.82-20.31,21.08,5.05,2.21,20.71-10.8,24.55-14.6,2.14-2.13,3.33-4.95,4.64-6.04,2.6-2.16,14.38-2.35,16.44-6.35,3.06-5.93-14.92,1.79-16.31,1.84l-.02.02ZM935.5,203.97c-2.5-2.33,9.37-10.37,11.8-8.42,2.94,2.35-9.77,8.98-11.8,8.42Z"/>
  </g>
  <g>
    <path class="st5" d="M409.55,150.21c1.87-4,14.55-29.05,13.51-30.35-.84-1.05-8.25-1.81-9.72.42-.86,2.89-3.9,8.93-6.4,14.87-3.33,7.92-6.14,15.7-6.14,15.7,0,0-12.78,3.58-16.43,7.04l1.64,2.9s11.94-6.09,13.81-5.2c0,1.16-9.28,29.76-10.99,31.31-.66.61-11.83,8.31-13.79,6.14-4.2-4.61,4.73-19.28.76-24.28-6.99-8.81-18.84,9.2-26.99,15.19-1.06-1.33,8.51-21.1-.86-16.88-2.89,1.3-4.51,14.1-7.43,17.07-.62.64-15.19,7.85-16.24,8.24-3.38,1.23-2.75-2.26-2.41-4.1.57-3.24,6.75-12.71,4.98-14.43-1.82-1.79-5.94,3.07-12.49,8.27-5.4,4.3-13.23,9.07-16.19,8.59-2.09-1.98,8.34-9.84,14.79-14.55,1.79-1.3,9.82-4.86,10.52-5.72,1.27-1.57-1.42-5.15-4.17-5.12-6.41.08-34.1,24.85-28.85,32.24,4.37,6.16,19.28-6.38,23.72-8.56,4.22,15.08,16.63,5,25.44.39-1.5,8.42-1.05,12.15.15,13.25,1.54,1.4,4.32-1.55,5.74-4.56.46-.96,5.2-7.17,9.79-12.04,5.76-6.09,11.73-10.94,13.74-10.55-1.33,8.63-2.68,18.96.3,22.52s10.28.34,19.09-7.34c-1.32,6.36-2.92,9.57-2.77,13.57.08,2.4,4.91,1.71,7.02,1.72,1.96-12.1,14.82-50.44,14.82-50.44l23.5-3.49s.51-2.7.51-3.75c-5-.57-21.07,2.53-21.93,1.86l-.02.05Z"/>
    <path class="st4" d="M280.57,173.74c-.24-.03,2.21-5.44,2.21-5.44,0,0-6.55-4.47-7.23-3.65-.32.39-3.63,4.84-5.76,9.82-2.72,6.33-4.46,13.86-5.84,18.52-.78,2.62-2.04,5.42.86,6.28.34.1,3.9,1.11,4.27,1.1,1.77-.08,5.33-12.96,7.12-16.24.74-1.35,2.41-3.44,3.65-4.83-.22.24,6.16-4.63,6.23-4.64,4.79-1.92,9.79-3.33,14.52-4.63-.54-1.33-.61-3.17-.61-3.17,0,0-1.67-.1-5.27,1.28-5.81,2.21-13.51,5.67-14.15,5.6l-.02-.02Z"/>
    <path class="st7" d="M269.65,165.55s-9.82,2.53-12.98,3.71c-2.31.86-8.98,4.12-8.98,4.12.35-.71.62-1.98.95-3.26.51-1.99,1.25-3.7.69-4.76-.41-.76-1.54-.83-3.34-.79-1.15.03-2.73,0-3.44,1.25-2.36,3.27-1.82,8.24-3.51,11.11-5.06,8.61-10.75,12.98-19.5,13.39-3.48.17-1.55-6.72-.66-11.51,1.35-7.21,3.87-14.42-3.29-10.42-3.71,4.49-16.97,20.71-21.05,22.47-3.16,1.35-3.04-6.3-.03-13.45,2.53-6.03,8.71-11.11,7.65-11.85-5.67-3.9-13.99,10.48-13.99,10.48,0,0-20.53,1.33-27.33,3.27,9.05-10.2,19.92-20.68,17.34-36.11s-18.11-18.94-32.5-19.92c-8.29-.57-30.08,1.89-30.08,1.89,0,0,.74-6.18-5.27-5.17s-7.24,8.07-7.24,8.07c0,0-20.11,6.52-27.47,9.67-3.6,1.54-26.08,11.55-26.89,12.78-.39.59,1.82,4.93,2.31,4.78,5.81-1.77,23.75-9.96,29.61-12.53,4.74-2.08,20.26-7.07,20.26-7.07,0,0-3.8,12.71-6.47,19.97-2.72,7.41-18.06,45.31-18.06,45.31,0,0-30.08,12.39-39.5,19.58-21.69,16.54-15.73,26.3,10.89,24.39,16.92-1.22,51.84-17.03,67.14-25.71,11.45-6.5,41.87-33.37,41.87-33.37,0,0,26.1-6.09,30.2-5.86,1.11,1-4.95,18.16,2.63,19.4,6.63,1.08,20.17-15.28,20.17-15.28,0,0-.25,10.04,5.27,11.66,4.15,1.23,9-1.37,12.88-3.56s6.77-4.61,7.04-4.22c0,0-3.85,6.45-3.17,8.37,1.11,3.19,5,3.71,6.74,2.9,2.89-1.33,2.94-4.3,4.68-7.78,2.03-4.03,5.33-12.59,8.42-14.42,7.04-4.12,11.04-5.44,17.4-7.95,1.1-.44,1.15-1.23,1.15-1.23,0,0-.05-.24-.51-2.38v.02ZM83.35,227.51c-13.79,5.77-39.01,17.67-51.69,10.64-11.39-6.35,41.7-32.13,43.89-30.37-1.37,3.19-5.81,16.56.83,15.18,4.19-.88,9.84-18.59,9.84-18.59,0,0,42.68-13.1,53.5-15.16-16.8,16.34-34.54,29.15-56.35,38.3h-.02ZM87.37,199.3c3.26-9.23,26.44-65.97,26.44-65.97,0,0,27.09-3.85,33.48-3.22,39.32,3.87,19.21,32.09.35,50.8l-60.27,18.4h0Z"/>
  </g>
  <g>
    <path class="st1" d="M600.14,135.72c.83-.73-6.2-10.65-7.19-11.78-3.65-4.12-8.54-6.13-12.59-9.86-4.47-4.12-7.31-10.64-14.55-10.04-1.22.1-5.3.96-5.77,1.91-.66,1.33.39,2.73-2.03,3.26l-12.09,1.03c-1.3-3.07,1.91-3.93,3.33-5.6.64-.76.81-2.19,1.45-2.73,1.64-1.37,7.73-3.56,9.12-4.81,3.49-3.16,8.51-12.61,9.07-17.35.41-3.41.89-9.44-3.34-10.1.32-2.13,1.11-5.23.17-7.28-.73-1.55-3.66-1.91-4.96-3.21-1.18-1.18-1.01-2.82-2.38-3.87-1.1-.83-3.19-.89-3.83-1.45s-.39-1.52-.73-2.14c-.46-.86-7.61-3.7-7.9-3.38l-.42,5c-4.41,2.52-3.92-5.32-5.64-5.89l-5.17-.1-.73,1.74c-2.73,1.15-2.87-1.72-5.55-1.76-1.23,0-9.89,1.42-10.31,1.99.19,1.3,1.18,4.34-.81,4.71-1.28.24-3.46-3.12-5.79-3.17-.25,0-4.36,1-4.88,1.16-.64.2-1.57.39-1.47,1.27l3.26,4.95c-2.08,3.71-5.87-2.48-7.77-3.29-2.65-1.15-3.65.96-6.13,1.08-.17,2.4,3.26,3.07,2.89,5.76-2.75,1.62-5.91-2.46-7.85-2.3-1.72.15-10.48,7.31-9.93,8.05l8.1,4.39-.39,2.14-11.33-2.18c-1.42.07-5.05,5.5-5.96,6.89.27,1.3,9.25,5.42,8.1,8.42-.52.79-9.99.79-11.48.03-.93.71-1.25,9.81-.96,11.29.2,1.08,3.44,2.68,4.56,3.61,6.52,5.5,4.69,12.36-1.1,17.57l3.39,17.1c1.71,2.99,10.77,6.99,10.94,10.25.22,4.19-7.14,1.59-8.44,3.55-.61.91.2,4.56.69,5.59,2.03,4.2,10.16,2.65,10.13,3.8-.05,1.84-5.22,1.77-6.45,1.64-1-.12-3.36-1.72-3.16-.2,3.55,12.27,5.94,24.92,10.08,37,2.18,6.33,5.32,14.62,8.24,20.58,3.66,7.48,10.28,14.89,13,22.54.46,1.3,1.57,3.53-.32,3.7-1.55-1.11-1.65-3.09-2.57-4.64-12.56-21.47-19.87-35.91-26.64-60.28-1.81-6.48-3.39-19.95-7.31-24.87-2.99-3.76-12.61-10.1.24-8.15,1.27-9.1-6.62-13.44-11.99-18.97-3.14-3.24-6.14-6.72-9.07-10.16-.3-1.05-.05-1.99,1.11-2.08,3.73-.27,10.13,4.69,14.6,2.36.39-2.68-1.13-5.06-1.64-7.61-.56-2.82-.73-9.17-2.65-10.8l-21.78-14.25c-2.77-2.36,2.95-3.17,4.73-3.31,6.85-.57,12.91,1.3,19.63,1.96.83-1.45,2.14-3.11,1.52-4.79-1.03-2.75-14.03-10.37-17.19-12.12-.74-.41-1.76-.29-2.52-.84-1.16-.84-1.64-2.31-.08-3.04,2.9-1.33,14.99,1.37,18.62,2.28,1.69.42,8.46,3.07,9.37,2.97.52-.05,1.18-1.15,1.65-1.52-4.27-5.69-10.75-10.16-14.87-15.85-1.15-1.6-2.82-3.39-2.36-5.47,6.25-1.06,13.49.88,19.19,3.55,2.73,1.27,8.83,5.76,11.01,6.3.84.2.88.24,1.45-.51-1.59-3.22-3.75-6.14-5.84-9.05-2.35-3.22-5.27-6.2-7.51-9.3-.51-.71-3.12-4.34-2.48-4.96,11.28.32,16.48,12.09,25.46,17.29.86-.98-10.79-18.01-12.41-20.04-.44-2.73,4.74-1.11,6.31-.52,7.97,3,13.15,10.6,18.57,16.48.37.41,2.13,2.63,2.65,1.67.69-1.25-6.9-23.65-7.7-27.36-1.25-6.01,1.06-5.33,5.67-2.8,9.03,4.98,13.2,17.59,17.62,26.32.86.12.44-1.05.35-1.55-.79-4.95-2.58-10.85-3.97-15.73-.51-1.81-4.19-8.8.57-6.84,6.25,2.55,12.86,17.4,15.04,23.63.83.12.46-1.1.47-1.67.29-7.61-1.87-15.87-.98-23.57.24-1.98.93-2.11,2.45-.96s10.57,18.1,11.73,20.93c.74,1.82,1.52,4.25,1.71,6.23.71-.08,1.13-1.71,1.3-2.3.96-3.34,2.13-14.3,4.68-15.99,3.46-2.3,4.3,3.95,4.59,6.04,1.6,11.78.57,23.95,2.53,35.89,1.28,7.75,3.26,8.78.49,17.07-2.19,6.62-6.38,11.29-9.27,17.39,2.55-.89,5.2-1.27,7.92-.96,5.89.68,10.74,9.3,15.13,13.22,6.99,6.25,10.85,6.89,16.24,15.94,1.37,2.28,3.75,5.49,2.43,8-1.76,3.38-5,.66-7.92.37-5.5-.54-12.27,1.38-17.03,4.09-.73,1.01-.59,11.83-.39,13.79.24,2.35,2.8,9.93,4.49,11.34,2.58,2.18,13.02.15,14.43,5.3,11.26-4.07,22.22-6.6,34.08-8.19,1.45-.19,2.67.41,3.76.32,4.46-.3,11.04-2.7,15.56-3.11,5.22-.46-1.27,6.36-1.92,8.19-.52,1.43,0,3.61-1.67,4.1-1.49.44-3.87-.05-5.6.15-2.13.27-5.91,1.69-7.34,1.74-.95.03-2.57-1.11-3.88-1.2-4.09-.25-12.64,2.35-16.93,3.48-2.79.74-12.86,3.34-14.67,4.54-1.1.73-1.35,2.28-2.13,3.16-4.29,4.88-5.66,9.82-10.1,13.91-5,4.61-11.29,9.3-17.29,12.49-5.23,2.79-10.82,4.3-15.38,8.15-5.27,4.44-11.02,11.51-11.07,18.74,0,1.13,1.5,6.47-.68,5.99-4.1-3.82-2.28-8.9-.47-13.44,1.92-4.88,6.08-10.53,10.1-13.93,5.4-4.56,13.83-6.2,20.24-10.01,3.98-2.38,13.49-10.3,15.48-14.3,1.6-3.26,1.94-7.14,5.81-9.08.17-1.01-.15-.57-.66-.76-2.7-1.05-6.84-1.79-4.36-5.69,1.33-2.09,4.52-2.55,4.05-5.3-3.53-.59-7.6-.03-10.74-2.01-6.68-4.2-7.17-22.55-7.46-29.64.39-.59,12.39-5.33,13.15-5.33h13.2l-.03.02ZM527.6,44.95c-3.41-10.04-7.75-21.79-17.76-26.89l7.44,27.85.91.46,9.42-1.42h-.02ZM554.5,48.31c1.84-1.96-5.64-17.78-7.11-20.49-.78-1.43-1.79-3.39-2.97-4.47l1.43,22.57,8.64,2.4ZM539.62,44.46c-1.84-5.77-4.3-13.17-8.44-17.73-.49-.54-.71-1.2-1.64-1,.02,2.06,1.32,3.63,1.79,5.64.86,3.68.98,8.09,2.14,11.78,1.11,1.96,4.27,1.15,6.14,1.28v.02ZM510.31,48.31c-4.3-7.31-10.55-13.64-18.25-17.29l10.58,18c1.52,1.38,5.69-.56,7.66-.71ZM566.02,58.39c-.32-8.22-.32-16.53-.96-24.73-.05-.56-.15-2.16-.96-2.16-1.1,4.03-1.86,8.53-3.12,12.48-.57,1.81-2.9,5.25-2.65,6.94l5.99,7.01,1.71.46v.02ZM494.63,49.1c-4.02-4.61-8.81-9.18-14.1-12.32l11.14,16.71c.84.49,4.51-.57,4.98-1.33.86-1.35-1.49-2.43-2.03-3.06ZM486.3,56.95c-7.92-2.97-14.92-9.12-24.01-8.64-.37.32,1.59,2.67,1.92,3.11,3.87,4.84,8.66,9,12.71,13.69l9.37-8.15h0ZM472.36,70.41c-6.47-1.72-12.88-4.15-19.68-3.85,3.98,3.65,9.17,6.21,13.44,9.39.32.24.47.76.51,1.16.44.07.61.05.96-.22,1.27-.96,2.97-5.28,4.79-6.48h-.02ZM473.81,85.77c-.52-1.08-4.36-4.44-5.25-3.82,0,.95-1.62,2.45-.52,3.11l5.77.71h0ZM462.76,86.73c-6.26-.51-12.41-2.3-18.72-1.92-.27,1.15.2.78.62,1.06,2.31,1.57,3.34,3.61,5.45,3.6l11.45,7.8c.47-.34.62-.62.73-1.18.19-1.18.81-9.03.47-9.37v.02ZM465.64,102.58c-.39,1.77,2.55,14.4,3.6,14.4,3.71-4.66,2.01-11.95-3.6-14.4ZM466.6,120.83h-10.08c.46,2.4,3.04,4.2,4.63,5.94,1.74,1.91,3.24,4.14,5.45,5.81.69.52,1.64.78,2.4,1.22l-2.4-12.96h0ZM474.4,147.61c1.05,1.15,5.98.49,5.64-1.06l-6.72-5.54,1.06,6.6h.02ZM632.8,167.88c-12.32-.32-24.06,4.1-35.55,7.93l-5.76,3.83c.52,1.11,2.95.78,3.97.61,6.16-1,14.79-4.1,21.19-5.71,5.06-1.27,10.2-2.52,15.35-3.38,1.23-.41.74-2.23.81-3.29Z"/>
    <path class="st1" d="M644.8,80.72c.41,2.45,2.87,5.82,5.27,6.77,1.11.29,2.84-3.9,4.86-2.48,1.69,3.12-2.46,4.61-3.41,7.21-.64,1.76-1.35,6.9-.84,8.58s3.61.95,2.77,3.66c-3.56-.98-10.16,8.42-9.52,10.72.96,3.49,7.04.95,9.07,1.54,1.72.49,1.15,1.59-.15,2.28-3.17,1.67-5.49.47-8.25,4.71-4.51,6.9,2.3,4.56,3.61,5.47.78.54.73,2.79-.34,3.09l-4.98.3c-1.42.68-3.11,5.84-2.16,7.44,1.84,3.82,9.77-1.47,10.3,1.74.29,1.74-5.52,3.17-6.94,4.51-.66.62-2.43,3.26-2.63,4.1-.15.64-.25,1.43.69,1.16.69-.19,8.53-5.39,7.39-1.27-.64,2.35-7.58,4.57-7.61,5.84,0,.52,1.06.74,1.64.71,2.45-.15,2.63-3.07,4.36-3.36.98-.1.64.03.74.73.73,5.44-10.3,7.65-9.66,1.43.1-.96.89-1.76.89-1.92,0-.34-1.01-.84-1.23-1.52-1-3.16,1.43-5.86,3.26-8.07-4.12-2.43-5.62-6.48-3.07-10.75.51-.86,1.76-1.43,2.03-2.3.51-1.65-.39-2.85-.39-4.22,0-2.8,2.57-5,3.8-7.28.08-.91-4-2.55-3.21-6.53.71-3.6,7.26-9.1,7.5-10.26.14-.68-.74-1.91-.83-2.85-.29-3.27.61-5.98,1.4-9.07-.12-1.2-3.75-3.95-4.73-5.37-2.63-3.82-2.87-8.2-2.19-12.66-3.61-1.01-9.77-1.98-12.31-5.01-4.36-5.25-.19-10.87,5.77-9.37.79,1.1-4.02,2.55-4.59,4.29-1.92,5.74,9.07,7.71,13.02,7.24,2.77-.32,3.76-1.77,7.29-.61,6.87,2.26-4.1,4.66-6.58,3.95.27,2.3-.37,5.27,0,7.44l-.02-.02Z"/>
    <path class="st1" d="M523.27,170.77c-.84.12-1.5-.05-2.26-.37-5.15-2.13-12.19-16.75-14.64-21.86-5.44-11.36-6.21-26-.32-37.49,6.36-12.41,18.65,1.18,19.58,10.08.1.91.47,4.37-1.13,4.03-2.3-1.71-2.23-4.78-3.24-7.33-2.3-5.69-8.29-13.45-12.8-4.86-7.58,14.45-.24,38.98,8.86,51.52,1.77,2.45,4.91,3.58,5.96,6.28h-.02Z"/>
    <path class="st1" d="M517.52,148.2c-2.23-.32-3.33-4.34-3.63-6.21s-.61-11.7.56-12.56c1.03-.76,3.06.07,3.06,1.25v17.52h.02Z"/>
  </g>
</svg>