<svg xmlns="http://www.w3.org/2000/svg" width="547" height="512" viewBox="0 0 547 512">
  <rect width="547" height="512" fill="black"/>
  <path d="M 440 334 L 445 336 L 443 338 L 439 338 L 438 336" fill="white" stroke="none"/>
  <path d="M 419 329 L 433 330 L 433 335 L 431 337 L 426 337 L 401 343 L 390 347 L 385 347 L 379 350 L 373 350 L 365 352 L 355 356 L 348 356 L 347 352 L 350 351 L 359 345 L 373 340 L 380 339 L 389 335 L 412 330" fill="white" stroke="none"/>
  <path d="M 101 273 L 110 281 L 111 281 L 115 286 L 113 288 L 110 289 L 105 289 L 103 288 L 101 284 L 101 279 L 100 278" fill="white" stroke="none"/>
  <path d="M 186 250 L 186 253 L 185 254 L 185 275 L 187 282 L 189 286 L 192 288 L 192 252 L 191 250 L 189 249" fill="white" stroke="none"/>
  <path d="M 66 231 L 87 232 L 87 237 L 91 256 L 91 259 L 87 257 L 84 253 L 81 252 L 79 248 L 77 248 L 65 233" fill="white" stroke="none"/>
  <path d="M 179 201 L 174 204 L 170 209 L 164 224 L 161 235 L 161 263 L 165 280 L 170 290 L 173 293 L 174 295 L 174 298 L 183 315 L 192 328 L 196 332 L 201 335 L 204 335 L 200 330 L 191 322 L 189 319 L 188 315 L 181 303 L 170 278 L 167 264 L 167 235 L 168 229 L 172 217 L 174 213 L 178 208 L 182 206 L 184 206 L 188 208 L 197 217 L 201 225 L 204 237 L 209 239 L 209 231 L 206 221 L 204 217 L 194 206 L 188 202 L 185 201" fill="white" stroke="none"/>
  <path d="M 85 193 L 87 195 L 88 195 L 95 202 L 96 204 L 96 219 L 92 224 L 90 222 L 87 213 L 84 199" fill="white" stroke="none"/>
  <path d="M 40 156 L 52 156 L 73 159 L 79 161 L 79 172 L 78 181 L 76 183 L 74 182 L 65 175 L 60 173 L 53 167 L 51 166 L 49 167 L 43 160 L 40 159" fill="white" stroke="none"/>
  <path d="M 90 151 L 93 150 L 102 158 L 100 159 L 90 158 L 88 155 L 89 153" fill="white" stroke="none"/>
  <path d="M 57 119 L 67 118 L 83 121 L 89 124 L 93 124 L 96 125 L 99 127 L 90 139 L 86 140 L 85 138 L 82 137 L 69 127 L 66 126 L 59 121" fill="white" stroke="none"/>
  <path d="M 432 101 L 427 104 L 423 109 L 423 114 L 426 118 L 426 120 L 431 124 L 439 128 L 447 130 L 451 130 L 453 133 L 452 146 L 453 150 L 457 158 L 467 168 L 467 171 L 465 175 L 464 180 L 464 189 L 466 194 L 453 209 L 450 215 L 450 220 L 453 224 L 453 225 L 455 226 L 457 229 L 450 239 L 449 242 L 450 253 L 445 258 L 443 263 L 443 269 L 445 274 L 452 280 L 447 286 L 445 290 L 445 297 L 448 300 L 446 302 L 446 308 L 449 311 L 458 311 L 460 310 L 465 305 L 465 300 L 463 300 L 461 302 L 461 303 L 456 307 L 453 307 L 451 305 L 455 301 L 462 298 L 467 293 L 466 290 L 463 290 L 450 295 L 450 292 L 454 286 L 457 283 L 460 281 L 467 279 L 470 275 L 468 273 L 464 273 L 461 275 L 453 275 L 448 271 L 448 265 L 451 258 L 454 255 L 465 254 L 464 249 L 456 249 L 454 247 L 454 243 L 456 238 L 464 230 L 466 229 L 473 228 L 475 227 L 476 224 L 474 223 L 470 223 L 466 224 L 465 225 L 463 225 L 458 223 L 455 220 L 455 217 L 460 208 L 468 199 L 473 197 L 475 197 L 474 193 L 472 193 L 469 190 L 469 179 L 472 169 L 477 165 L 479 161 L 478 157 L 475 157 L 469 163 L 467 162 L 461 157 L 457 148 L 458 132 L 472 131 L 474 130 L 474 126 L 470 124 L 461 124 L 458 126 L 452 127 L 444 126 L 433 121 L 429 117 L 428 115 L 428 111 L 431 107 L 437 104 L 438 102 L 436 101" fill="white" stroke="none"/>
  <path d="M 78 80 L 85 80 L 97 83 L 110 89 L 119 95 L 128 99 L 123 104 L 112 112 L 108 116 L 86 93 L 77 82" fill="white" stroke="none"/>
  <path d="M 116 56 L 125 62 L 135 71 L 150 86 L 151 88 L 143 92 L 138 91 L 125 73 L 125 71 L 115 58" fill="white" stroke="none"/>
  <path d="M 290 45 L 292 48 L 294 85 L 293 102 L 291 102 L 277 87 L 277 83 L 283 70 L 284 63 L 287 56 L 287 52" fill="white" stroke="none"/>
  <path d="M 139 45 L 141 44 L 143 46 L 146 47 L 157 55 L 168 66 L 172 71 L 177 81 L 175 82 L 164 84 L 162 83 L 160 81 L 156 71 L 144 54 L 144 52" fill="white" stroke="none"/>
  <path d="M 219 33 L 225 40 L 230 48 L 237 64 L 238 73 L 229 73 L 225 70 L 224 67 L 224 61 L 222 57 L 221 45 L 219 39 L 217 37" fill="white" stroke="none"/>
  <path d="M 249 28 L 251 30 L 255 37 L 256 41 L 259 45 L 266 60 L 270 74 L 269 81 L 267 81 L 262 78 L 251 75 L 251 61 L 249 56 L 248 31" fill="white" stroke="none"/>
  <path d="M 177 17 L 181 19 L 186 23 L 194 31 L 195 34 L 199 38 L 206 51 L 206 54 L 213 68 L 214 71 L 213 74 L 201 75 L 195 77 L 193 77 L 191 75 L 190 67 L 188 64 L 187 54 L 185 48 L 183 45 L 176 21" fill="white" stroke="none"/>
  <path d="M 172 11 L 170 12 L 169 15 L 178 48 L 182 57 L 187 77 L 185 79 L 178 72 L 174 66 L 167 58 L 155 48 L 142 40 L 134 38 L 129 39 L 130 43 L 137 51 L 140 57 L 143 60 L 152 75 L 154 83 L 139 71 L 129 60 L 122 54 L 113 49 L 107 47 L 102 47 L 102 49 L 107 57 L 113 63 L 123 76 L 134 92 L 135 95 L 132 97 L 110 84 L 96 78 L 78 75 L 72 75 L 71 76 L 69 76 L 69 79 L 73 86 L 78 92 L 102 116 L 102 117 L 105 120 L 101 124 L 81 117 L 72 115 L 53 112 L 44 112 L 42 113 L 41 115 L 44 119 L 47 119 L 76 137 L 84 144 L 85 146 L 85 149 L 82 155 L 76 156 L 75 155 L 69 155 L 58 152 L 37 152 L 29 155 L 30 158 L 39 163 L 45 168 L 48 169 L 60 178 L 75 187 L 79 192 L 80 204 L 82 214 L 85 221 L 84 227 L 81 228 L 75 228 L 70 227 L 56 222 L 52 223 L 52 226 L 67 243 L 70 245 L 70 246 L 72 248 L 73 248 L 75 250 L 75 251 L 77 253 L 78 253 L 80 256 L 91 266 L 94 271 L 96 279 L 95 287 L 83 287 L 83 291 L 97 305 L 100 310 L 104 325 L 104 329 L 108 339 L 110 354 L 115 367 L 115 371 L 118 376 L 120 386 L 132 420 L 137 428 L 137 431 L 144 443 L 144 445 L 147 448 L 149 453 L 156 463 L 156 465 L 166 480 L 169 488 L 173 488 L 172 484 L 168 475 L 161 463 L 153 452 L 143 434 L 137 420 L 133 407 L 128 397 L 121 375 L 117 360 L 114 344 L 111 337 L 109 329 L 109 325 L 106 317 L 109 315 L 112 316 L 121 316 L 126 313 L 124 312 L 114 312 L 111 311 L 105 306 L 103 299 L 103 294 L 105 292 L 108 291 L 118 291 L 121 288 L 121 285 L 117 280 L 108 273 L 106 273 L 104 271 L 104 270 L 98 265 L 97 261 L 97 255 L 94 245 L 94 239 L 91 229 L 98 222 L 100 219 L 102 212 L 102 205 L 100 199 L 93 192 L 89 189 L 86 188 L 84 186 L 84 168 L 85 163 L 87 161 L 108 162 L 110 160 L 110 158 L 100 149 L 96 147 L 93 143 L 96 140 L 99 135 L 105 129 L 107 129 L 111 131 L 125 133 L 126 134 L 130 133 L 130 130 L 123 127 L 119 123 L 113 120 L 117 115 L 128 106 L 135 103 L 143 108 L 147 109 L 150 108 L 149 104 L 144 99 L 145 96 L 147 96 L 152 93 L 156 93 L 158 94 L 165 101 L 169 103 L 173 101 L 168 95 L 166 90 L 168 88 L 171 87 L 183 86 L 185 87 L 189 91 L 192 92 L 194 90 L 193 85 L 194 82 L 199 80 L 204 79 L 211 79 L 212 78 L 218 78 L 222 82 L 227 81 L 228 78 L 239 78 L 241 80 L 242 85 L 245 91 L 250 91 L 254 81 L 259 82 L 266 85 L 269 88 L 270 92 L 277 94 L 280 97 L 281 101 L 284 104 L 291 107 L 293 109 L 294 111 L 293 125 L 297 126 L 299 128 L 301 139 L 299 151 L 294 165 L 289 170 L 285 177 L 279 184 L 274 185 L 272 186 L 268 190 L 261 193 L 261 195 L 259 197 L 259 198 L 252 204 L 251 206 L 252 209 L 258 209 L 266 207 L 276 207 L 280 205 L 280 201 L 283 198 L 291 196 L 300 196 L 306 199 L 311 203 L 316 208 L 320 214 L 333 225 L 342 230 L 352 240 L 361 253 L 364 263 L 337 263 L 325 267 L 318 271 L 316 271 L 310 274 L 311 299 L 313 310 L 317 323 L 321 331 L 325 335 L 333 338 L 342 338 L 348 340 L 348 343 L 339 351 L 338 353 L 338 356 L 339 358 L 350 364 L 344 369 L 339 378 L 339 381 L 335 388 L 327 396 L 320 401 L 312 409 L 306 413 L 286 423 L 281 425 L 278 425 L 271 428 L 264 433 L 255 442 L 248 451 L 242 463 L 239 472 L 238 477 L 238 481 L 241 488 L 245 489 L 245 483 L 244 482 L 244 475 L 245 469 L 253 453 L 270 436 L 276 432 L 287 428 L 313 414 L 329 400 L 334 397 L 343 388 L 349 374 L 352 370 L 357 366 L 358 363 L 362 359 L 392 350 L 417 344 L 427 343 L 428 344 L 436 345 L 449 342 L 462 342 L 464 340 L 464 335 L 466 331 L 473 321 L 473 318 L 469 317 L 468 318 L 459 320 L 441 322 L 436 324 L 428 323 L 420 324 L 413 326 L 405 326 L 396 328 L 376 335 L 372 335 L 360 340 L 357 339 L 356 336 L 352 334 L 339 331 L 331 331 L 326 327 L 324 324 L 320 314 L 318 306 L 318 278 L 319 276 L 322 275 L 328 271 L 334 269 L 346 267 L 356 267 L 361 268 L 364 270 L 368 270 L 371 267 L 372 265 L 372 262 L 366 250 L 356 236 L 349 229 L 339 223 L 334 219 L 323 208 L 318 201 L 313 197 L 313 196 L 310 193 L 303 190 L 290 190 L 287 191 L 284 190 L 286 186 L 296 172 L 300 164 L 304 154 L 306 147 L 306 143 L 307 142 L 306 134 L 302 120 L 300 105 L 299 91 L 299 68 L 296 37 L 292 32 L 289 32 L 286 35 L 282 48 L 279 66 L 276 71 L 274 64 L 272 61 L 272 58 L 265 44 L 260 37 L 250 17 L 246 13 L 243 14 L 243 42 L 245 53 L 244 69 L 241 64 L 239 57 L 231 41 L 225 32 L 216 22 L 211 19 L 209 19 L 208 25 L 212 34 L 218 57 L 218 61 L 220 66 L 219 70 L 213 60 L 204 40 L 194 25 L 185 17 L 175 12" fill="white" stroke="none"/>
</svg>